<svg xmlns="http://www.w3.org/2000/svg" width="20" height="20" viewBox="0 0 20 20" fill="none">
<path fill-rule="evenodd" clip-rule="evenodd" d="M9.99999 2.91667C7.01183 2.91667 5.62499 4.92852 5.62499 6.66667V13.5417H3.12499C2.31957 13.5417 1.66666 12.8888 1.66666 12.0833V8.75001C1.66666 7.94459 2.31957 7.29167 3.12499 7.29167H4.37499V6.66667C4.37499 4.23816 6.32148 1.66667 9.99999 1.66667C13.6785 1.66667 15.625 4.23816 15.625 6.66667V7.29167H16.875C17.6804 7.29167 18.3333 7.94459 18.3333 8.75001V12.0833C18.3333 12.8888 17.6804 13.5417 16.875 13.5417H15.625V15.8333C15.625 16.6388 14.9721 17.2917 14.1667 17.2917H13.0646C12.8853 17.8941 12.3273 18.3333 11.6667 18.3333H8.12499C7.31958 18.3333 6.66666 17.6804 6.66666 16.875V16.4583C6.66666 15.6529 7.31957 15 8.12499 15H11.6667C12.3273 15 12.8853 15.4393 13.0646 16.0417H14.1667C14.2817 16.0417 14.375 15.9484 14.375 15.8333V6.66667C14.375 4.92852 12.9881 2.91667 9.99999 2.91667ZM4.37499 8.54167V12.2917H3.12499C3.00993 12.2917 2.91666 12.1984 2.91666 12.0833V8.75001C2.91666 8.63495 3.00993 8.54167 3.12499 8.54167H4.37499ZM15.625 12.2917V8.54167H16.875C16.99 8.54167 17.0833 8.63495 17.0833 8.75001V12.0833C17.0833 12.1984 16.99 12.2917 16.875 12.2917H15.625ZM7.91666 16.4583C7.91666 16.3433 8.00993 16.25 8.12499 16.25H11.6667C11.7817 16.25 11.875 16.3433 11.875 16.4583V16.875C11.875 16.9901 11.7817 17.0833 11.6667 17.0833H8.12499C8.00993 17.0833 7.91666 16.9901 7.91666 16.875V16.4583Z" fill="currentColor"/>
</svg>