<svg xmlns="http://www.w3.org/2000/svg" viewBox="0 0 20 20" fill="none">
  <g clip-path="url(#clip0_3642_48385)">
    <path d="M3.53464 5.34583L3.35014 5.77033C3.32131 5.83946 3.27267 5.89851 3.21034 5.94004C3.14801 5.98157 3.07479 6.00374 2.99989 6.00374C2.925 6.00374 2.85177 5.98157 2.78945 5.94004C2.72712 5.89851 2.67848 5.83946 2.64964 5.77033L2.46514 5.34583C2.14075 4.59488 1.54668 3.99277 0.800144 3.65833L0.230894 3.40408C0.161833 3.37232 0.10333 3.32141 0.0623194 3.25741C0.021309 3.1934 -0.000488281 3.11898 -0.000488281 3.04296C-0.000488281 2.96694 0.021309 2.89252 0.0623194 2.82851C0.10333 2.76451 0.161833 2.7136 0.230894 2.68183L0.768644 2.44258C1.53395 2.09862 2.13819 1.47425 2.45689 0.698084L2.64739 0.239834C2.67526 0.16885 2.72387 0.107908 2.78688 0.064953C2.84989 0.0219983 2.92438 -0.000976563 3.00064 -0.000976562C3.0769 -0.000976563 3.15139 0.0219983 3.21441 0.064953C3.27742 0.107908 3.32603 0.16885 3.35389 0.239834L3.54364 0.697334C3.86201 1.47364 4.46599 2.09828 5.23114 2.44258L5.76964 2.68258C5.8385 2.71444 5.89679 2.76534 5.93765 2.82926C5.9785 2.89319 6.00021 2.96747 6.00021 3.04333C6.00021 3.1192 5.9785 3.19348 5.93765 3.2574C5.89679 3.32133 5.8385 3.37223 5.76964 3.40408L5.19964 3.65758C4.45325 3.99236 3.85945 4.59473 3.53539 5.34583M2.29789 16.2096C3.06739 11.5663 4.73389 1.49758 15.7499 1.49758C14.6279 3.74758 13.8749 4.87258 13.1249 5.62258L12.3749 6.37258L13.4999 7.12258C12.7499 9.37259 10.4999 11.9976 7.49989 12.3726C5.49839 12.6226 4.24789 13.9976 3.74839 16.4976H2.24989L2.29789 16.2096Z" fill="currentColor"/>
  </g>
  <defs>
    <clipPath id="clip0_3642_48385">
      <rect width="18" height="18" fill="white"/>
    </clipPath>
  </defs>
</svg>