<svg xmlns="http://www.w3.org/2000/svg" width="20" height="20" viewBox="0 0 20 20" fill="none">
<path d="M10.4688 6.24999V9.73437L13.3664 11.4727C13.4731 11.5367 13.55 11.6405 13.5802 11.7612C13.6104 11.8819 13.5914 12.0097 13.5273 12.1164C13.4633 12.2231 13.3595 12.3 13.2388 12.3302C13.1181 12.3604 12.9903 12.3414 12.8836 12.2773L9.75859 10.4023C9.68917 10.3606 9.63174 10.3016 9.59189 10.2311C9.55205 10.1606 9.53116 10.081 9.53125 9.99999V6.24999C9.53125 6.12567 9.58064 6.00645 9.66854 5.91854C9.75645 5.83063 9.87568 5.78124 10 5.78124C10.1243 5.78124 10.2435 5.83063 10.3315 5.91854C10.4194 6.00645 10.4688 6.12567 10.4688 6.24999ZM10 2.65624C9.03478 2.65374 8.07866 2.84275 7.187 3.21234C6.29534 3.58193 5.48587 4.12475 4.80547 4.80937C4.13516 5.48749 3.55547 6.13749 2.96875 6.82499V4.99999C2.96875 4.87567 2.91936 4.75645 2.83146 4.66854C2.74355 4.58063 2.62432 4.53124 2.5 4.53124C2.37568 4.53124 2.25645 4.58063 2.16854 4.66854C2.08064 4.75645 2.03125 4.87567 2.03125 4.99999V8.12499C2.03125 8.24931 2.08064 8.36854 2.16854 8.45645C2.25645 8.54436 2.37568 8.59374 2.5 8.59374H5.625C5.74932 8.59374 5.86855 8.54436 5.95646 8.45645C6.04436 8.36854 6.09375 8.24931 6.09375 8.12499C6.09375 8.00067 6.04436 7.88145 5.95646 7.79354C5.86855 7.70563 5.74932 7.65624 5.625 7.65624H3.49453C4.12969 6.89765 4.74922 6.19921 5.46875 5.46874C6.35912 4.57842 7.49211 3.97022 8.72617 3.72014C9.96022 3.47006 11.2406 3.58918 12.4073 4.06263C13.5741 4.53608 14.5754 5.34286 15.2863 6.38215C15.9971 7.42145 16.3859 8.64718 16.4041 9.90618C16.4223 11.1652 16.0691 12.4016 15.3886 13.4611C14.7081 14.5205 13.7305 15.3558 12.5779 15.8628C11.4253 16.3698 10.1489 16.5259 8.90815 16.3115C7.66739 16.0972 6.51729 15.522 5.60156 14.6578C5.55713 14.614 5.5044 14.5795 5.44647 14.5564C5.38854 14.5332 5.32656 14.5219 5.26418 14.523C5.2018 14.5241 5.14027 14.5376 5.0832 14.5628C5.02612 14.588 4.97465 14.6244 4.9318 14.6697C4.88895 14.715 4.85559 14.7685 4.83366 14.8269C4.81173 14.8853 4.80169 14.9475 4.80411 15.0098C4.80653 15.0722 4.82137 15.1334 4.84777 15.1899C4.87416 15.2465 4.91157 15.2972 4.95781 15.3391C5.82938 16.1622 6.8892 16.7594 8.04474 17.0786C9.20028 17.3978 10.4164 17.4293 11.5869 17.1703C12.7574 16.9112 13.8467 16.3696 14.7596 15.5927C15.6726 14.8157 16.3815 13.827 16.8244 12.713C17.2673 11.599 17.4307 10.3935 17.3004 9.20182C17.1701 8.01011 16.75 6.86841 16.0769 5.87642C15.4037 4.88443 14.498 4.07232 13.4387 3.511C12.3794 2.94968 11.1988 2.65622 10 2.65624Z" fill="currentColor"/>
</svg>