<svg width="20" height="20" viewBox="0 0 20 20" fill="none" xmlns="http://www.w3.org/2000/svg">
<path d="M10.1133 3.06104V4.05713C10.1114 4.05713 10.1094 4.05713 10.1075 4.05713C6.72182 4.05715 4.00643 6.67896 4.01663 9.88428V9.88525C4.01659 11.0002 4.34862 12.0909 4.97269 13.023C5.00834 13.0707 5.04233 13.1206 5.07327 13.1714L5.07523 13.1753L5.07816 13.1792C5.12822 13.265 5.18765 13.3807 5.22855 13.5083C5.266 13.6252 5.30835 13.8158 5.25198 14.019V14.02L4.72757 15.8804L6.54202 15.2388C6.72244 15.166 6.91618 15.1288 7.11136 15.1294C7.29393 15.1297 7.47512 15.1629 7.64554 15.2271H7.64652C7.75024 15.2663 8.16038 15.4158 8.56546 15.5269C8.96427 15.6362 9.70003 15.768 10.2207 15.7681C13.5895 15.7681 16.2099 13.118 16.21 9.89014C16.21 9.78913 16.2067 9.68818 16.2012 9.5874H17.2168C17.2215 9.68818 17.2256 9.78916 17.2256 9.89014C17.2255 13.6571 14.1616 16.7642 10.2207 16.7642C9.57958 16.7641 8.74759 16.6101 8.29105 16.4849C7.84189 16.3617 7.39835 16.2004 7.2803 16.1558C7.22574 16.1353 7.16686 16.1246 7.10843 16.1245L7.01468 16.1333C6.98369 16.1394 6.95311 16.1485 6.92386 16.1606L6.91116 16.1665L4.75687 16.9282C4.66741 16.9642 4.57282 16.9877 4.47659 16.9976L4.44925 16.9995H4.42191C4.31452 16.9991 4.20837 16.9779 4.10941 16.937C4.01032 16.8961 3.92011 16.8364 3.84476 16.7612C3.76954 16.6861 3.70989 16.5972 3.66995 16.4995C3.63002 16.4018 3.61078 16.2972 3.61234 16.1919V16.1772L3.61331 16.1616C3.61853 16.0936 3.6311 16.026 3.65042 15.9605L4.25882 13.8052C4.24771 13.771 4.22631 13.7258 4.19827 13.6772C4.18299 13.6525 4.16613 13.6282 4.14847 13.605L4.13968 13.5942L4.13187 13.5815C3.39384 12.4847 3.00014 11.2 3.00003 9.88623C2.98846 6.10695 6.1837 3.06106 10.1075 3.06104C10.1094 3.06104 10.1114 3.06103 10.1133 3.06104Z" fill="currentColor"/>
<rect x="14.2606" y="2" width="1.02021" height="6.32837" fill="#5F6D7E"/>
<rect x="18" y="4.66394" width="0.999646" height="6.45858" transform="rotate(90 18 4.66394)" fill="#5F6D7E"/>
</svg>
